<svg xmlns="http://www.w3.org/2000/svg" xmlns:xlink="http://www.w3.org/1999/xlink" width="80" height="39.99999976158142" viewBox="0 0 80 39.99999976158142" fill="none">
<g  clip-path="url(#clip-path-0)">
<path d="M64.722 22.065L66.018 21.765C66.0608 21.7555 66.1031 21.7442 66.145 21.731C66.1892 21.7191 66.2327 21.7051 66.2756 21.6891C66.3185 21.673 66.3605 21.6549 66.4016 21.6348C66.4427 21.6147 66.4828 21.5927 66.5218 21.5688C66.5608 21.5448 66.5986 21.519 66.6351 21.4915C66.6716 21.4639 66.7068 21.4346 66.7405 21.4037C66.7742 21.3727 66.8064 21.3402 66.837 21.3062C66.8676 21.2722 66.8965 21.2368 66.9237 21.2C66.9509 21.1631 66.9763 21.1251 66.9999 21.0859C67.0234 21.0466 67.0451 21.0063 67.0647 20.965C67.0844 20.9236 67.1021 20.8815 67.1177 20.8385C67.1334 20.7955 67.1469 20.7518 67.1583 20.7075C67.1698 20.6631 67.1791 20.6184 67.1862 20.5732C67.1934 20.528 67.1983 20.4825 67.2011 20.4368C67.2039 20.3911 67.2045 20.3454 67.2028 20.2997C67.2012 20.2539 67.1974 20.2083 67.1914 20.163C67.1855 20.1176 67.1773 20.0726 67.167 20.028L67.161 20.005C67.118 19.8304 67.0447 19.6698 66.941 19.523C66.7944 19.3373 66.6181 19.1863 66.412 19.07C66.1712 18.9326 65.9205 18.8166 65.66 18.722L64.24 18.204C63.443 17.908 62.645 17.619 61.84 17.337C61.319 17.152 60.877 16.989 60.492 16.871C60.42 16.848 60.34 16.826 60.275 16.804C59.81 16.661 59.485 16.602 59.208 16.601C59.0215 16.5941 58.8421 16.6268 58.67 16.699C58.4903 16.7762 58.3343 16.8869 58.202 17.031C58.137 17.1051 58.076 17.1824 58.019 17.263C57.9078 17.4338 57.8168 17.6148 57.746 17.806C57.4807 18.5908 57.3513 19.3975 57.358 20.226C57.364 20.97 57.384 21.924 57.793 22.571C57.891 22.737 58.023 22.881 58.181 22.992C58.472 23.193 58.766 23.22 59.073 23.242C59.53 23.274 59.973 23.162 60.415 23.06L64.719 22.064L64.722 22.065ZM79.173 15.183C78.8168 14.4355 78.3478 13.7672 77.766 13.178C77.691 13.1039 77.611 13.0355 77.526 12.973C77.4479 12.9141 77.3669 12.8595 77.283 12.809C77.1963 12.7619 77.1073 12.7196 77.016 12.682C76.8344 12.6104 76.6461 12.5791 76.451 12.588C76.2645 12.5993 76.0888 12.6489 75.924 12.737C75.677 12.86 75.41 13.057 75.054 13.387C75.005 13.437 74.944 13.492 74.888 13.543C74.595 13.819 74.268 14.16 73.88 14.556C73.28 15.162 72.69 15.772 72.103 16.388L71.053 17.478C70.861 17.678 70.686 17.892 70.53 18.121C70.397 18.314 70.303 18.531 70.253 18.761C70.2232 18.9384 70.2272 19.1151 70.265 19.291L70.271 19.314C70.2813 19.3585 70.2937 19.4025 70.3081 19.4459C70.3227 19.4892 70.3392 19.5317 70.3578 19.5735C70.3764 19.6153 70.3969 19.6561 70.4194 19.6959C70.4419 19.7357 70.4663 19.7743 70.4925 19.8118C70.5187 19.8492 70.5467 19.8853 70.5763 19.9201C70.606 19.9548 70.6373 19.9881 70.6701 20.0199C70.703 20.0517 70.7373 20.0818 70.7731 20.1103C70.8089 20.1387 70.8459 20.1654 70.8842 20.1903C70.9226 20.2152 70.962 20.2382 71.0025 20.2594C71.0431 20.2805 71.0845 20.2996 71.1269 20.3168C71.1693 20.3339 71.2124 20.349 71.2562 20.362C71.3 20.375 71.3444 20.3859 71.3892 20.3947C71.4341 20.4034 71.4793 20.41 71.5248 20.4144C71.5703 20.4188 71.6159 20.421 71.6616 20.4211C71.7074 20.4211 71.753 20.4189 71.7984 20.4146C71.844 20.4102 71.8892 20.4036 71.934 20.395C71.991 20.387 72.036 20.377 72.064 20.371L77.664 19.075C78.106 18.973 78.554 18.879 78.95 18.649C79.216 18.494 79.469 18.341 79.642 18.033C79.736 17.8614 79.791 17.678 79.807 17.483C79.893 16.72 79.494 15.853 79.173 15.183ZM69.149 17.541C69.555 17.031 69.553 16.271 69.589 15.649C69.711 13.573 69.839 11.497 69.94 9.419C69.98 8.63301 70.064 7.85701 70.016 7.064C69.978 6.41 69.973 5.65901 69.56 5.122C68.83 4.176 67.276 4.254 66.216 4.402C65.891 4.447 65.566 4.507 65.243 4.585C64.92 4.663 64.601 4.747 64.288 4.848C63.271 5.181 61.84 5.793 61.598 6.966C61.462 7.629 61.786 8.30601 62.037 8.912C62.341 9.645 62.757 10.305 63.137 10.995C64.138 12.818 65.159 14.628 66.177 16.441C66.481 16.981 66.812 17.667 67.4 17.947C67.439 17.964 67.478 17.979 67.519 17.992C67.782 18.092 68.069 18.112 68.344 18.047L68.394 18.036C68.647 17.966 68.876 17.829 69.056 17.637C69.089 17.607 69.12 17.575 69.149 17.541ZM68.665 23.1C68.6257 23.0446 68.5823 22.9926 68.5347 22.944C68.4872 22.8954 68.4362 22.8509 68.3816 22.8104C68.327 22.7698 68.2696 22.7338 68.2094 22.7023C68.1492 22.6708 68.0869 22.6442 68.0225 22.6225C67.9581 22.6008 67.8924 22.5843 67.8253 22.573C67.7583 22.5616 67.6909 22.5555 67.6229 22.5549C67.555 22.5541 67.4874 22.5587 67.4201 22.5686C67.3529 22.5785 67.2869 22.5936 67.222 22.614C67.16 22.634 67.101 22.659 67.042 22.688C66.9528 22.7341 66.8681 22.7874 66.788 22.848C66.555 23.02 66.358 23.245 66.18 23.47C66.134 23.528 66.093 23.604 66.039 23.654L65.139 24.894C64.628 25.588 64.124 26.284 63.625 26.991C63.299 27.448 63.018 27.833 62.795 28.174C62.753 28.239 62.709 28.311 62.669 28.368C62.402 28.781 62.251 29.082 62.174 29.35C62.1149 29.5306 62.0969 29.7153 62.12 29.904C62.145 30.098 62.21 30.284 62.312 30.451C62.366 30.535 62.424 30.616 62.486 30.694C62.6214 30.8496 62.7724 30.9883 62.939 31.11C63.561 31.543 64.242 31.854 64.959 32.094C65.5575 32.2923 66.1715 32.4093 66.801 32.445C66.907 32.45 67.014 32.448 67.121 32.438C67.2194 32.4294 67.3171 32.4158 67.414 32.397C67.5112 32.3741 67.6069 32.3461 67.701 32.313C67.7912 32.281 67.8769 32.2395 67.9579 32.1887C68.039 32.1378 68.1135 32.0787 68.1815 32.0114C68.2495 31.944 68.3094 31.8701 68.3611 31.7896C68.4129 31.709 68.4552 31.6238 68.488 31.534C68.592 31.274 68.66 30.944 68.705 30.456C68.709 30.386 68.719 30.302 68.726 30.226C68.761 29.82 68.778 29.343 68.804 28.782C68.847 27.92 68.882 27.062 68.909 26.2L68.966 24.67C68.979 24.316 68.968 23.926 68.87 23.575C68.8268 23.4056 68.7582 23.2473 68.664 23.1L68.665 23.1ZM78.835 25.493C78.647 25.287 78.381 25.081 77.96 24.827C77.9 24.793 77.828 24.748 77.763 24.709C77.413 24.499 76.991 24.277 76.499 24.009C75.7432 23.5958 74.9838 23.1891 74.221 22.789L72.871 22.073C72.801 22.053 72.73 22.003 72.664 21.971C72.4035 21.8376 72.1302 21.7399 71.844 21.678C71.7456 21.6594 71.6462 21.6494 71.546 21.648C71.4814 21.6461 71.417 21.6498 71.353 21.659C71.2859 21.6693 71.22 21.6848 71.1554 21.7056C71.0908 21.7262 71.0281 21.7518 70.9674 21.7824C70.9068 21.8129 70.8489 21.848 70.7937 21.8876C70.7386 21.9272 70.6869 21.9708 70.6386 22.0186C70.5904 22.0664 70.5461 22.1176 70.5058 22.1723C70.4656 22.2269 70.4299 22.2844 70.3987 22.3448C70.3675 22.405 70.3412 22.4674 70.3198 22.5319C70.2984 22.5963 70.2821 22.662 70.271 22.729C70.251 22.901 70.257 23.075 70.29 23.244C70.356 23.604 70.517 23.959 70.683 24.27L71.404 25.621C71.805 26.383 72.212 27.141 72.628 27.896C72.897 28.388 73.12 28.81 73.329 29.159C73.369 29.225 73.414 29.296 73.449 29.356C73.703 29.776 73.908 30.041 74.115 30.23C74.25 30.36 74.411 30.459 74.588 30.52C74.773 30.581 74.97 30.603 75.164 30.584C75.263 30.5719 75.361 30.5546 75.458 30.532C75.554 30.507 75.648 30.476 75.741 30.441C75.841 30.403 75.938 30.358 76.031 30.306C76.5813 29.9972 77.082 29.6222 77.533 29.181C78.072 28.651 78.548 28.072 78.918 27.411C78.9698 27.3169 79.0145 27.2196 79.052 27.119C79.087 27.0266 79.117 26.9326 79.142 26.837C79.164 26.739 79.181 26.641 79.192 26.542C79.2108 26.3453 79.1888 26.1533 79.126 25.966C79.0644 25.7868 78.9677 25.6292 78.836 25.493L78.835 25.493Z"   fill="#FF1A1A" >
</path>
<path d="M32.352 12.352C32.352 11.239 33.26 10.329 34.354 10.329C35.434 10.329 36.309 11.239 36.356 12.368L36.356 28.158C36.356 29.272 35.449 30.181 34.354 30.181C34.288 30.181 34.2221 30.1777 34.1565 30.1712C34.0907 30.1647 34.0255 30.155 33.9608 30.142C33.8961 30.1291 33.8322 30.113 33.7691 30.0937C33.7059 30.0744 33.6439 30.0521 33.583 30.0266C33.522 30.0012 33.4625 29.9728 33.4044 29.9415C33.3463 29.9102 33.2899 29.8762 33.2352 29.8393C33.1804 29.8024 33.1276 29.7629 33.0768 29.7208C33.0259 29.6787 32.9773 29.6341 32.9309 29.5872C32.8845 29.5403 32.8405 29.4912 32.7989 29.4399C32.7573 29.3886 32.7183 29.3355 32.6821 29.2804C32.6457 29.2253 32.6122 29.1685 32.5815 29.11C32.5508 29.0516 32.5231 28.9918 32.4983 28.9306C32.4735 28.8694 32.4518 28.8071 32.4332 28.7438C32.4146 28.6805 32.3991 28.6164 32.3869 28.5515C32.3745 28.4867 32.3655 28.4214 32.3597 28.3556C32.3539 28.2899 32.3513 28.224 32.352 28.158L32.352 12.353L32.352 12.352ZM30.492 22.106C30.476 22.419 30.398 22.999 29.992 23.423C29.553 23.878 28.959 23.987 28.615 23.987C27.184 23.995 25.753 23.999 24.322 24.003C22.892 24.007 21.46 24.011 20.029 24.019C20.155 24.411 20.405 25.007 20.968 25.555C21.312 25.885 21.64 26.073 21.781 26.151C21.953 26.261 22.547 26.575 23.282 26.575C24.064 26.575 24.752 26.324 25.425 25.979L25.481 25.949C25.948 25.708 26.431 25.458 26.941 25.367C27.442 25.289 27.974 25.383 28.365 25.727C28.834 26.136 29.022 26.732 28.85 27.343C28.646 28.033 28.068 28.629 27.458 28.99C27.114 29.193 26.738 29.366 26.363 29.507C25.879 29.6785 25.3833 29.8038 24.8759 29.8828C24.3685 29.9618 23.8582 29.9932 23.345 29.977C23.095 29.977 22.829 29.977 22.563 29.947C22.2834 29.911 22.0071 29.8583 21.734 29.789C21.301 29.6951 20.884 29.5541 20.483 29.366C20.0817 29.1882 19.701 28.9739 19.341 28.723C18.982 28.465 18.6487 28.1773 18.341 27.86C18.0347 27.5391 17.758 27.1945 17.511 26.826C16.667 25.54 16.276 23.956 16.354 22.419C16.417 20.914 16.917 19.409 17.824 18.185C17.9205 18.0413 18.0272 17.9057 18.144 17.778C18.19 17.725 18.235 17.673 18.278 17.621C19.398 16.251 20.895 15.818 21.512 15.639L21.546 15.629C21.8576 15.5405 22.1739 15.4739 22.4948 15.4292C22.8156 15.3845 23.138 15.3622 23.462 15.3622C23.7859 15.3622 24.1083 15.3845 24.4292 15.4292C24.75 15.4739 25.0663 15.5405 25.378 15.629C25.675 15.708 27.348 16.225 28.646 17.621C28.709 17.684 28.881 17.887 29.1 18.185C29.3776 18.563 29.6174 18.9636 29.8196 19.3869C30.0217 19.8101 30.1825 20.2485 30.302 20.702L30.304 20.71C30.398 21.055 30.492 21.525 30.492 22.106ZM21.312 19.518C21.1586 19.6427 21.0167 19.7793 20.8863 19.9278C20.7559 20.0763 20.6388 20.2347 20.535 20.4029C20.4311 20.571 20.342 20.7467 20.2677 20.9298C20.1933 21.1129 20.1348 21.301 20.092 21.494L26.91 21.494C26.8642 21.3013 26.8032 21.1135 26.7269 20.9307C26.6505 20.7479 26.5599 20.5725 26.4549 20.4045C26.3499 20.2365 26.2319 20.0781 26.1011 19.9294C25.9703 19.7807 25.8282 19.6435 25.675 19.518C25.5206 19.3941 25.357 19.2839 25.1843 19.1873C25.0115 19.0907 24.832 19.0091 24.6457 18.9424C24.4593 18.8757 24.2688 18.8248 24.074 18.7899C23.8792 18.7549 23.6828 18.7363 23.485 18.734C23.188 18.734 22.219 18.781 21.312 19.518ZM47.24 15.363C45.458 15.363 43.831 16.163 42.674 17.464L42.674 17.417C42.6721 17.3517 42.6671 17.2867 42.6589 17.2219C42.6506 17.1572 42.6392 17.093 42.6247 17.0293C42.6101 16.9656 42.5925 16.9028 42.5718 16.8409C42.551 16.779 42.5273 16.7182 42.5007 16.6586C42.474 16.5991 42.4445 16.5409 42.4121 16.4842C42.3797 16.4275 42.3446 16.3726 42.3068 16.3193C42.269 16.266 42.2287 16.2148 42.1859 16.1655C42.1431 16.1162 42.0979 16.0691 42.0505 16.0242C42.003 15.9794 41.9535 15.937 41.9019 15.897C41.8503 15.857 41.7968 15.8196 41.7416 15.7848C41.6863 15.7501 41.6294 15.7181 41.571 15.689C41.5126 15.6598 41.4529 15.6336 41.3919 15.6103C41.3309 15.587 41.2689 15.5667 41.2059 15.5495C41.1429 15.5323 41.0793 15.5182 41.0149 15.5072C40.9505 15.4963 40.8858 15.4885 40.8206 15.4839C40.7554 15.4793 40.6902 15.4779 40.625 15.4797C40.5597 15.4815 40.4947 15.4865 40.43 15.4947C40.3652 15.5028 40.3009 15.5142 40.2373 15.5287C40.1736 15.5432 40.1108 15.5607 40.0489 15.5814C39.9869 15.6021 39.9261 15.6257 39.8665 15.6523C39.8069 15.679 39.7487 15.7085 39.692 15.7408C39.6352 15.7731 39.5802 15.8082 39.527 15.8459C39.4737 15.8836 39.4224 15.9239 39.3731 15.9667C39.3237 16.0095 39.2766 16.0546 39.2318 16.102C39.1868 16.1494 39.1443 16.1989 39.1043 16.2505C39.0643 16.302 39.0269 16.3554 38.9921 16.4107C38.9573 16.466 38.9253 16.5228 38.8961 16.5812C38.8669 16.6396 38.8406 16.6993 38.8172 16.7602C38.7938 16.8212 38.7735 16.8832 38.7563 16.9462C38.739 17.0091 38.7249 17.0728 38.7139 17.1372C38.7028 17.2015 38.695 17.2663 38.6904 17.3314C38.6857 17.3965 38.6842 17.4617 38.686 17.527L38.686 32.597C38.686 33.71 39.578 34.603 40.688 34.603C41.798 34.603 42.69 33.71 42.69 32.596L42.69 27.892C43.847 29.178 45.458 29.993 47.256 29.993C50.837 29.993 53.746 26.747 53.746 22.702C53.73 18.656 50.821 15.362 47.24 15.362L47.24 15.363ZM46.364 26.716C44.332 26.716 42.674 24.944 42.674 22.733C42.674 20.506 44.316 18.734 46.364 18.734C48.398 18.734 50.055 20.506 50.055 22.733C50.04 24.943 48.398 26.716 46.365 26.716L46.364 26.716ZM13.352 23.752L12.695 25.195C12.398 25.822 12.101 26.465 11.819 27.108C11.729 27.305 11.639 27.506 11.547 27.711C10.297 30.491 8.814 33.792 5.58 34.494C4.016 34.839 1.654 34.368 0.778996 32.894C-0.0970042 31.404 1.201 29.695 2.874 30.087C3.138 30.147 3.398 30.276 3.659 30.406C4.095 30.623 4.538 30.844 5.017 30.746C5.47 30.668 5.752 30.338 6.111 29.915C6.30367 29.6904 6.46863 29.447 6.60588 29.1848C6.74313 28.9226 6.84917 28.6483 6.924 28.362C6.91559 28.344 6.90792 28.3257 6.901 28.307C6.89403 28.2887 6.88637 28.2707 6.878 28.253C6.47 27.493 6.115 26.814 5.818 26.247C5.624 25.877 5.456 25.555 5.314 25.289L4.631 23.995C4.131 23.047 4.049 22.891 3.828 22.482C3.34184 21.5638 2.83117 20.6595 2.296 19.769C1.716 18.797 1.123 17.715 1.607 16.57C1.62951 16.5151 1.65453 16.4614 1.68205 16.4088C1.70956 16.3563 1.73946 16.3051 1.77173 16.2554C1.804 16.2056 1.83852 16.1574 1.87528 16.1109C1.91203 16.0643 1.95087 16.0195 1.99179 15.9766C2.03271 15.9337 2.07553 15.8927 2.12026 15.8537C2.16499 15.8148 2.21144 15.778 2.25959 15.7433C2.30774 15.7086 2.3574 15.6763 2.40856 15.6463C2.45972 15.6163 2.51216 15.5887 2.56589 15.5635C2.61962 15.5384 2.6744 15.5158 2.73023 15.4958C2.78606 15.4757 2.8427 15.4583 2.90015 15.4435C2.9576 15.4287 3.01562 15.4166 3.07419 15.4073C3.13276 15.3979 3.19165 15.3912 3.25084 15.3873C3.31003 15.3834 3.36927 15.3823 3.42857 15.3839C3.48787 15.3855 3.54697 15.3898 3.60586 15.3969C3.66476 15.404 3.7232 15.4139 3.78118 15.4264C3.83916 15.4389 3.89643 15.4541 3.953 15.472C4.96 15.778 5.405 16.736 5.823 17.632C5.898 17.793 5.973 17.953 6.049 18.107C6.721 19.44 7.378 20.773 8.035 22.105C8.093 22.238 8.181 22.419 8.288 22.638C8.384 22.834 8.495 23.061 8.613 23.313C8.675 23.443 8.733 23.565 8.787 23.675C8.855 23.815 8.914 23.937 8.957 24.035C9.262 23.274 9.571 22.517 9.88 21.761C10.189 21.004 10.498 20.247 10.803 19.487C10.811 19.444 10.884 19.282 10.993 19.037C11.1568 18.6752 11.3148 18.3109 11.467 17.944C11.873 16.955 12.361 15.766 13.446 15.441C13.5416 15.4133 13.6387 15.3932 13.7375 15.3806C13.8361 15.368 13.9352 15.3631 14.0348 15.3658C14.1342 15.3685 14.2329 15.3788 14.3308 15.3968C14.4286 15.4148 14.5245 15.4402 14.6185 15.473C14.7125 15.5058 14.8033 15.5456 14.8911 15.5925C14.9789 15.6394 15.0625 15.6927 15.1421 15.7526C15.2216 15.8124 15.2961 15.878 15.3655 15.9493C15.4349 16.0206 15.4984 16.0969 15.556 16.178C15.792 16.508 15.886 16.884 15.901 17.26C15.914 18.092 15.511 18.985 15.166 19.752C15.082 19.939 15.002 20.118 14.931 20.287L14.89 20.379C14.794 20.593 14.535 21.177 14.087 22.137C13.925 22.481 13.77 22.826 13.613 23.174C13.527 23.365 13.441 23.558 13.352 23.752Z" fill-rule="evenodd"  fill="#FFFFFF" >
</path>
</g>
<defs>
<clipPath id="clip-path-0">
<path d="M0 40L80 40L80 6.67572e-08L0 6.67572e-08L0 40Z" fill="white"/>
</clipPath>
</defs>
</svg>
