<svg width="80" height="40" viewBox="0 0 80 40" fill="none" xmlns="http://www.w3.org/2000/svg">
  <path d="M64.722 22.065l1.296-.3a1.49 1.49 0 00.127-.034 1.43 1.43 0 001.022-1.703l-.006-.023a1.428 1.428 0 00-.22-.482 1.804 1.804 0 00-.529-.453 4.885 4.885 0 00-.752-.348l-1.42-.518c-.797-.296-1.595-.585-2.4-.867-.521-.185-.963-.348-1.348-.466-.072-.023-.152-.045-.217-.067-.465-.143-.79-.202-1.067-.203a1.27 1.27 0 00-.538.098 1.37 1.37 0 00-.468.332 2.84 2.84 0 00-.183.232 2.736 2.736 0 00-.273.543 7.371 7.371 0 00-.388 2.42c.006.744.026 1.698.435 2.345.098.166.23.31.388.421.291.201.585.228.892.25.457.032.9-.08 1.342-.182l4.304-.996.003.001zm14.451-6.882a7.36 7.36 0 00-1.407-2.005 2.18 2.18 0 00-.24-.205 2.817 2.817 0 00-.243-.164 2.765 2.765 0 00-.267-.127 1.37 1.37 0 00-.565-.094 1.283 1.283 0 00-.527.149c-.247.123-.514.32-.87.65-.049.05-.11.105-.166.156-.293.276-.62.617-1.008 1.013-.6.606-1.19 1.216-1.777 1.832l-1.05 1.09c-.192.2-.367.414-.523.643-.133.193-.227.41-.277.64a1.41 1.41 0 00.012.53l.006.023a1.428 1.428 0 001.663 1.081c.057-.008.102-.018.13-.024l5.6-1.296c.442-.102.89-.196 1.286-.426.266-.155.519-.308.692-.616a1.38 1.38 0 00.165-.55c.086-.763-.313-1.63-.634-2.3zm-10.024 2.358c.406-.51.404-1.27.44-1.892.122-2.076.25-4.152.351-6.23.04-.786.124-1.562.076-2.355-.038-.654-.043-1.405-.456-1.942-.73-.946-2.284-.868-3.344-.72-.325.045-.65.105-.973.183-.323.078-.642.162-.955.263-1.017.333-2.448.945-2.69 2.118-.136.663.188 1.34.439 1.946.304.733.72 1.393 1.1 2.083 1.001 1.823 2.022 3.633 3.04 5.446.304.54.635 1.226 1.223 1.506.039.017.078.032.119.045.263.1.55.12.825.055l.05-.011c.253-.07.482-.207.662-.399.033-.03.064-.062.093-.096zm-.484 5.559a1.295 1.295 0 00-1.443-.486c-.062.02-.121.045-.18.074a1.775 1.775 0 00-.254.16c-.233.172-.43.397-.608.622-.046.058-.087.134-.141.184l-.9 1.24c-.511.694-1.015 1.39-1.514 2.097-.326.457-.607.842-.83 1.183-.042.065-.086.137-.126.194-.267.413-.418.714-.495.982a1.283 1.283 0 00-.054.554c.025.194.09.38.192.547.054.084.112.165.174.243a2.748 2.748 0 00.453.416c.622.433 1.303.744 2.02.984a7.14 7.14 0 001.842.351c.106.005.213.003.32-.007a2.82 2.82 0 00.293-.041 2.8 2.8 0 00.287-.084 1.301 1.301 0 00.787-.779c.104-.26.172-.59.217-1.078.004-.07.014-.154.021-.23.035-.406.052-.883.078-1.444.043-.862.078-1.72.105-2.582l.057-1.53c.013-.354.002-.744-.096-1.095a1.633 1.633 0 00-.206-.475zm10.17 2.393c-.188-.206-.454-.412-.875-.666-.06-.034-.132-.079-.197-.118-.35-.21-.772-.432-1.264-.7a150.76 150.76 0 00-2.278-1.22l-1.35-.716c-.07-.02-.141-.07-.207-.102a3.356 3.356 0 00-.82-.293 1.735 1.735 0 00-.298-.03 1.125 1.125 0 00-.193.011 1.297 1.297 0 00-1.082 1.07c-.02.172-.014.346.019.515.066.36.227.715.393 1.026l.721 1.351c.401.762.808 1.52 1.224 2.275.269.492.492.914.701 1.263.04.066.085.137.12.197.254.42.459.685.666.874.135.13.296.229.473.29.185.061.382.083.576.064a2.79 2.79 0 00.294-.052c.096-.025.19-.056.283-.091.1-.038.197-.083.29-.135a7.153 7.153 0 001.502-1.125c.539-.53 1.015-1.109 1.385-1.77a2.19 2.19 0 00.134-.292 2.8 2.8 0 00.09-.282c.022-.098.039-.196.05-.295a1.394 1.394 0 00-.066-.576 1.28 1.28 0 00-.29-.473z" fill="#FF1A1A"/>
  <path fill-rule="evenodd" clip-rule="evenodd" d="M32.352 12.352c0-1.113.908-2.023 2.002-2.023 1.08 0 1.955.91 2.002 2.039v15.79c0 1.114-.907 2.023-2.002 2.023a2.002 2.002 0 01-2.002-2.023V12.353zm-1.86 9.754c-.016.313-.094.893-.5 1.317-.439.455-1.033.564-1.377.564-1.431.008-2.862.012-4.293.016-1.43.004-2.862.008-4.293.016.126.392.376.988.939 1.536.344.33.672.518.813.596.172.11.766.424 1.501.424.782 0 1.47-.251 2.143-.596l.056-.03c.467-.241.95-.491 1.46-.582.501-.078 1.033.016 1.424.36.469.409.657 1.005.485 1.616-.204.69-.782 1.286-1.392 1.647-.344.203-.72.376-1.095.517a8.254 8.254 0 01-3.018.47c-.25 0-.516 0-.782-.03a7.008 7.008 0 01-.829-.158 5.882 5.882 0 01-1.251-.423 6.854 6.854 0 01-1.142-.643 7.457 7.457 0 01-1-.863 7.744 7.744 0 01-.83-1.034c-.844-1.286-1.235-2.87-1.157-4.407.063-1.505.563-3.01 1.47-4.234a3.47 3.47 0 01.32-.407c.046-.053.091-.105.134-.157 1.12-1.37 2.617-1.803 3.234-1.982l.034-.01a7.014 7.014 0 013.832 0c.297.079 1.97.596 3.268 1.992.063.063.235.266.454.564a7.466 7.466 0 011.202 2.517l.002.008c.094.345.188.815.188 1.396zm-9.18-2.588a3.532 3.532 0 00-1.22 1.976h6.818a3.64 3.64 0 00-1.235-1.976 3.565 3.565 0 00-2.19-.784c-.297 0-1.266.047-2.173.784zm25.928-4.155c-1.782 0-3.409.8-4.566 2.101v-.047a1.994 1.994 0 00-3.988.11v15.07c0 1.113.892 2.006 2.002 2.006 1.11 0 2.002-.893 2.002-2.007v-4.704c1.157 1.286 2.768 2.101 4.566 2.101 3.581 0 6.49-3.246 6.49-7.291-.016-4.046-2.925-7.34-6.506-7.34zm-.876 11.353c-2.032 0-3.69-1.772-3.69-3.983 0-2.227 1.642-3.999 3.69-3.999 2.034 0 3.691 1.772 3.691 3.999-.015 2.21-1.657 3.983-3.69 3.983zm-33.012-2.964l-.657 1.443c-.297.627-.594 1.27-.876 1.913-.09.197-.18.398-.272.603-1.25 2.78-2.733 6.081-5.967 6.783-1.564.345-3.926-.126-4.801-1.6-.876-1.49.422-3.199 2.095-2.807.264.06.524.189.785.319.436.217.879.438 1.358.34.453-.078.735-.408 1.094-.831a3.9 3.9 0 00.813-1.553.732.732 0 01-.023-.055.751.751 0 00-.023-.054c-.408-.76-.763-1.439-1.06-2.006-.194-.37-.362-.692-.504-.958l-.683-1.294c-.5-.948-.582-1.104-.803-1.513a57.5 57.5 0 00-1.532-2.713c-.58-.972-1.173-2.054-.689-3.199a1.913 1.913 0 012.346-1.098c1.007.306 1.452 1.264 1.87 2.16.075.161.15.321.226.475.672 1.333 1.329 2.666 1.986 3.998.058.133.146.314.253.533.096.196.207.423.325.675.062.13.12.252.174.362.068.14.127.262.17.36.305-.761.614-1.518.923-2.274.309-.757.618-1.514.923-2.274.008-.043.081-.205.19-.45a37.344 37.344 0 00.474-1.093c.406-.989.894-2.178 1.979-2.503a1.93 1.93 0 012.11.737c.236.33.33.706.345 1.082.013.832-.39 1.725-.735 2.492-.084.187-.164.366-.235.535l-.041.092c-.096.214-.355.798-.803 1.758-.162.344-.317.689-.474 1.037-.086.191-.172.384-.261.578z" fill="#000"/>
</svg>
